<svg xmlns="http://www.w3.org/2000/svg" xmlns:xlink="http://www.w3.org/1999/xlink" viewBox="0,0,256,256" width="100px" height="100px"><g fill="none" fill-rule="nonzero" stroke="none" stroke-width="1" stroke-linecap="butt" stroke-linejoin="miter" stroke-miterlimit="10" stroke-dasharray="" stroke-dashoffset="0" font-family="none" font-weight="none" font-size="none" text-anchor="none" style="mix-blend-mode: normal"><g transform="scale(2.56,2.56)"><path d="M80,79h-60.874v-59h60.496z" fill="#0b7b9e"></path><path d="M81.949,82h-65.949v-65h67.052zM22,76h54.051l0.897,-53h-54.948z" fill="#00447c"></path><path d="M50,61c-6.065,0 -11,-4.935 -11,-11c0,-6.065 4.935,-11 11,-11c6.065,0 11,4.935 11,11c0,6.065 -4.935,11 -11,11zM50,43c-3.859,0 -7,3.141 -7,7c0,3.859 3.141,7 7,7c3.859,0 7,-3.141 7,-7c0,-3.859 -3.141,-7 -7,-7z" fill="#eaeaea"></path><path d="M63,70h-27c-4.411,0 -8,-3.589 -8,-8v-25c0,-4.411 3.589,-8 8,-8h27c4.411,0 8,3.589 8,8v25c0,4.411 -3.589,8 -8,8zM36,33c-2.206,0 -4,1.794 -4,4v25c0,2.206 1.794,4 4,4h27c2.206,0 4,-1.794 4,-4v-25c0,-2.206 -1.794,-4 -4,-4z" fill="#eaeaea"></path><circle cx="61.5" cy="38.5" r="2.5" fill="#eaeaea"></circle><path d="M86,86h-64v-10h54v-53h10z" fill="#c6c3b6"></path></g></g></svg>