<svg xmlns="http://www.w3.org/2000/svg" xmlns:xlink="http://www.w3.org/1999/xlink" viewBox="0,0,256,256" width="100px" height="100px"><g fill="none" fill-rule="nonzero" stroke="none" stroke-width="1" stroke-linecap="butt" stroke-linejoin="miter" stroke-miterlimit="10" stroke-dasharray="" stroke-dashoffset="0" font-family="none" font-weight="none" font-size="none" text-anchor="none" style="mix-blend-mode: normal"><g transform="scale(2.56,2.56)"><path d="M79,78h-60.874v-59h60.496z" fill="#0b7b9e"></path><path d="M82,81h-67v-65h67.052zM21,75h54.051l0.897,-53h-54.948z" fill="#00447c"></path><path d="M85,85h-64v-10h54v-53h10z" fill="#c6c3b6"></path><path d="M30,40.5h7.5v25.5h-7.5zM33.728,37.5h-0.042c-2.238,0 -3.686,-1.668 -3.686,-3.751c0,-2.129 1.493,-3.749 3.771,-3.749c2.282,0 3.687,1.62 3.729,3.749c0,2.082 -1.447,3.751 -3.772,3.751zM66,66h-7.5v-13.648c0,-3.297 -1.838,-5.547 -4.788,-5.547c-2.251,0 -3.47,1.518 -4.061,2.985c-0.216,0.525 -0.152,1.977 -0.152,2.71v13.5h-7.499v-25.5h7.5v3.924c1.082,-1.674 2.775,-3.924 7.107,-3.924c5.367,0 9.392,3.375 9.392,10.911l0.001,14.589z" fill="#eaeaea"></path></g></g></svg>