<svg xmlns="http://www.w3.org/2000/svg" xmlns:xlink="http://www.w3.org/1999/xlink" viewBox="0,0,256,256" width="100px" height="100px"><g fill="none" fill-rule="none" stroke="none" stroke-width="1" stroke-linecap="butt" stroke-linejoin="miter" stroke-miterlimit="10" stroke-dasharray="" stroke-dashoffset="0" font-family="none" font-weight="none" font-size="none" text-anchor="none" style="mix-blend-mode: normal"><g transform="scale(2.56,2.56)"><path d="M50.974,80.062h-0.012c-5.397,0 -10.698,-1.456 -15.314,-4.189l-1.101,-0.651l-11.397,2.982l3.041,-11.101l-0.71,-1.136c-3.018,-4.793 -4.604,-10.332 -4.604,-16.012c0,-16.58 13.503,-30.072 30.107,-30.072c8.036,0 15.586,3.136 21.267,8.817c5.681,5.692 8.805,13.243 8.805,21.279c0.002,16.591 -13.502,30.083 -30.082,30.083z" fill="#0b7b9e" fill-rule="evenodd"></path><path d="M50.975,83.121h-0.013c-5.93,0 -11.754,-1.594 -16.843,-4.608l-0.021,-0.013l-15.212,3.981l4.065,-14.844l-0.013,-0.021c-3.309,-5.254 -5.06,-11.344 -5.06,-17.603c0,-18.235 14.852,-33.071 33.107,-33.071c8.83,0 17.136,3.443 23.388,9.695c6.245,6.258 9.684,14.567 9.684,23.4c0.001,18.243 -14.84,33.084 -33.082,33.084zM34.998,72.062l2.177,1.286c4.166,2.469 8.933,3.772 13.787,3.772h0.013c14.934,0 27.083,-12.149 27.083,-27.083c0,-7.232 -2.815,-14.037 -7.928,-19.16c-5.117,-5.116 -11.916,-7.936 -19.144,-7.936c-14.947,0 -27.107,12.145 -27.107,27.071c0,5.126 1.433,10.11 4.143,14.414l1.412,2.259l-2.017,7.359z" fill="#00447c" fill-rule="nonzero"></path><path d="M50.975,87.063l-0.013,-10c14.915,0 27.038,-12.124 27.038,-27.025c0,-7.217 -2.81,-14.008 -7.912,-19.12c-5.106,-5.105 -11.89,-7.918 -19.101,-7.918c-14.916,0 -27.051,12.118 -27.051,27.013h-10c0.001,-20.409 16.622,-37.013 37.051,-37.013c9.881,0 19.177,3.854 26.175,10.85c6.99,7.004 10.838,16.304 10.838,26.188c0,20.416 -16.609,37.025 -37.025,37.025z" fill="#dddace" fill-rule="nonzero"></path><path d="M32,59.872l16.25,-17.875l8.125,8.125l14.625,-8.125l-16.25,17.875l-8.125,-8.125z" fill="#eaeaea" fill-rule="nonzero"></path></g></g></svg>