<svg xmlns="http://www.w3.org/2000/svg" xmlns:xlink="http://www.w3.org/1999/xlink" viewBox="0,0,256,256" width="100px" height="100px"><g fill="none" fill-rule="nonzero" stroke="none" stroke-width="1" stroke-linecap="butt" stroke-linejoin="miter" stroke-miterlimit="10" stroke-dasharray="" stroke-dashoffset="0" font-family="none" font-weight="none" font-size="none" text-anchor="none" style="mix-blend-mode: normal"><g transform="scale(2.56,2.56)"><circle cx="49.872" cy="48.617" r="28.128" fill="#0b7b9e"></circle><path d="M50.474,30.548c-11.709,0 -17.925,7.86 -17.925,16.416c0,3.979 2.118,8.932 5.507,10.51c0.513,0.239 0.789,0.136 0.907,-0.362c0.091,-0.378 0.548,-2.22 0.753,-3.077c0.066,-0.273 0.033,-0.508 -0.188,-0.777c-1.122,-1.361 -2.019,-3.86 -2.019,-6.191c0,-5.984 4.53,-11.773 12.248,-11.773c6.664,0 11.33,4.542 11.33,11.037c0,7.338 -3.706,12.422 -8.527,12.422c-2.663,0 -4.657,-2.203 -4.017,-4.904c0.767,-3.224 2.247,-6.703 2.247,-9.031c0,-2.083 -1.116,-3.821 -3.432,-3.821c-2.722,0 -4.908,2.815 -4.908,6.588c0,2.401 0.812,4.026 0.812,4.026c0,0 -2.689,11.369 -3.181,13.485c-0.545,2.336 -0.53,6.248 -0.294,8.394l-0.181,0.026c0.612,0.24 1.224,0.48 1.857,0.676l0.378,-0.657c1.108,-1.801 2.76,-4.755 3.373,-7.11c0.331,-1.27 1.691,-6.449 1.691,-6.449c0.884,1.687 3.467,3.116 6.216,3.116c8.181,0 14.077,-7.524 14.077,-16.873c0.001,-8.966 -7.312,-15.671 -16.724,-15.671z" fill="#eaeaea"></path><path d="M50,81.082c-17.645,0 -32,-14.355 -32,-32c0,-17.645 14.355,-32 32,-32c17.645,0 32,14.355 32,32c0,17.645 -14.355,32 -32,32zM50,23.082c-14.337,0 -26,11.663 -26,26c0,14.337 11.663,26 26,26c14.337,0 26,-11.663 26,-26c0,-14.337 -11.663,-26 -26,-26z" fill="#00447c"></path><path d="M50.032,85.015c-9.176,0 -17.864,-3.646 -24.52,-10.302l6.768,-6.768c4.859,4.858 11.51,7.192 18.147,7.066c6.646,-0.106 13.168,-2.765 18.131,-7.729l6.945,6.937c-6.81,6.811 -15.658,10.643 -24.916,10.791c-0.184,0.003 -0.37,0.005 -0.555,0.005z" fill="#dddace"></path></g></g></svg>