<svg xmlns="http://www.w3.org/2000/svg" xmlns:xlink="http://www.w3.org/1999/xlink" viewBox="0,0,256,256" width="100px" height="100px"><defs><clipPath id="clip-1"><rect x="228" y="-488.867" width="100" height="84.444" id="ElEZxbd11caf7Hde2Rz4wb"></rect></clipPath></defs><g fill="none" fill-rule="nonzero" stroke="none" stroke-width="1" stroke-linecap="butt" stroke-linejoin="miter" stroke-miterlimit="10" stroke-dasharray="" stroke-dashoffset="0" font-family="none" font-weight="none" font-size="none" text-anchor="none" style="mix-blend-mode: normal"><g transform="scale(2.56,2.56)"><g clip-path="url(#clip-1)" fill="none"></g><path d="M81.948,65.357c-0.678,3.559 -3.559,6.27 -7.118,6.779c-5.593,0.847 -14.913,1.864 -25.421,1.864c-10.338,0 -19.659,-1.017 -25.42,-1.864c-3.559,-0.508 -6.44,-3.22 -7.118,-6.779c-0.678,-3.898 -1.356,-9.66 -1.356,-16.778c0,-7.118 0.678,-12.88 1.356,-16.778c0.678,-3.559 3.559,-6.27 7.118,-6.779c5.593,-0.847 14.913,-1.864 25.42,-1.864c10.507,0 19.659,1.017 25.42,1.864c3.559,0.508 6.44,3.22 7.118,6.779c0.678,3.898 1.525,9.66 1.525,16.778c-0.169,7.118 -0.846,12.88 -1.524,16.778z" fill="#0b7b9e"></path><path d="M49.937,77c-11.282,0 -21.043,-1.188 -25.857,-1.896c-4.84,-0.691 -8.713,-4.384 -9.628,-9.185c-0.647,-3.721 -1.408,-9.703 -1.408,-17.34c0,-7.637 0.761,-13.618 1.399,-17.291c0.924,-4.851 4.798,-8.542 9.649,-9.234c3.74,-0.567 13.799,-1.895 25.845,-1.895c10.717,0 19.977,1.031 25.857,1.896c4.839,0.69 8.713,4.382 9.628,9.185c0.682,3.924 1.578,9.934 1.578,17.339c-0.188,7.924 -0.957,13.771 -1.569,17.292l-0.009,0.048c-0.915,4.801 -4.788,8.493 -9.64,9.187c-3.741,0.567 -13.8,1.894 -25.845,1.894zM49.937,26.159c-11.638,0 -21.34,1.28 -24.972,1.83c-2.338,0.334 -4.185,2.09 -4.619,4.374c-0.59,3.393 -1.303,9.007 -1.303,16.216c0,7.209 0.713,12.824 1.312,16.265c0.426,2.235 2.272,3.991 4.586,4.322c4.663,0.686 14.095,1.834 24.996,1.834c11.638,0 21.34,-1.28 24.972,-1.83c2.33,-0.334 4.173,-2.08 4.615,-4.352c0.474,-2.729 1.29,-8.456 1.478,-16.311c-0.001,-6.87 -0.847,-12.535 -1.482,-16.192c-0.426,-2.236 -2.272,-3.992 -4.585,-4.322c-5.697,-0.838 -14.644,-1.834 -24.998,-1.834z" fill="#00447c"></path><g fill="#eaeaea"><path d="M43.901,60.039v-22.919l19.645,11.46z"></path></g><g fill="#dddace"><path d="M49.913,80.891c-11.751,0 -21.925,-1.291 -26.942,-2.061c-5.786,-0.861 -10.413,-5.415 -11.493,-11.327c-0.174,-1.042 -0.393,-2.097 -0.63,-3.245c-0.78,-3.785 -1.848,-8.969 -1.848,-15.258h10c0,5.27 0.91,9.688 1.643,13.239c0.257,1.248 0.5,2.426 0.686,3.543c0.298,1.625 1.563,2.926 3.137,3.16c4.759,0.729 14.36,1.948 25.448,1.948c11.837,0 21.709,-1.357 25.404,-1.941c1.616,-0.241 2.882,-1.542 3.192,-3.243c0.185,-1.109 0.447,-2.369 0.726,-3.704c0.733,-3.523 1.646,-7.91 1.766,-13.116l9.998,0.229c-0.141,6.121 -1.157,11.004 -1.975,14.927c-0.268,1.287 -0.499,2.398 -0.664,3.386c-1.093,5.988 -5.719,10.541 -11.526,11.406c-3.886,0.613 -14.377,2.057 -26.922,2.057z"></path></g></g></g></svg>